{
  "accessors": [
    {
      "name": "Bus_Green_0103_001_1_0_positions",
      "componentType": 5126,
      "count": 1052,
      "min": [
        -1.3734999895095825,
        0,
        -5.217400074005127
      ],
      "max": [
        1.3734999895095825,
        2.8434998989105225,
        5.217400074005127
      ],
      "type": "VEC3",
      "bufferView": 0,
      "byteOffset": 0
    },
    {
      "name": "Bus_Green_0103_001_1_0_normals",
      "componentType": 5126,
      "count": 1052,
      "min": [
        -1,
        -1,
        -1
      ],
      "max": [
        1,
        1,
        1
      ],
      "type": "VEC3",
      "bufferView": 1,
      "byteOffset": 0
    },
    {
      "name": "Bus_Green_0103_001_1_0_texcoords",
      "componentType": 5126,
      "count": 1052,
      "min": [
        0.029999999329447746,
        0.029999999329447746
      ],
      "max": [
        0.9807999730110168,
        0.989799976348877
      ],
      "type": "VEC2",
      "bufferView": 2,
      "byteOffset": 0
    },
    {
      "name": "Bus_Green_0103_001_1_0_indices",
      "componentType": 5123,
      "count": 2442,
      "min": [
        0
      ],
      "max": [
        1051
      ],
      "type": "SCALAR",
      "bufferView": 3,
      "byteOffset": 0
    }
  ],
  "asset": {
    "generator": "obj2gltf",
    "version": "2.0"
  },
  "buffers": [
    {
      "name": "Bus_003",
      "byteLength": 760336,
      "uri": "data:application/octet-stream;base64,"
    }
  ],
  "bufferViews": [
    {
      "name": "bufferView_0",
      "buffer": 0,
      "byteLength": 12624,
      "byteOffset": 0,
      "byteStride": 12,
      "target": 34962
    },
    {
      "name": "bufferView_1",
      "buffer": 0,
      "byteLength": 12624,
      "byteOffset": 12624,
      "byteStride": 12,
      "target": 34962
    },
    {
      "name": "bufferView_2",
      "buffer": 0,
      "byteLength": 8416,
      "byteOffset": 25248,
      "byteStride": 8,
      "target": 34962
    },
    {
      "name": "bufferView_3",
      "buffer": 0,
      "byteLength": 4884,
      "byteOffset": 33664,
      "target": 34963
    },
    {
      "buffer": 0,
      "byteOffset": 38548,
      "byteLength": 721785
    }
  ],
  "images": [
    {
      "name": "BUS05",
      "mimeType": "image/jpeg",
      "bufferView": 4
    }
  ],
  "materials": [
    {
      "name": "bus04",
      "pbrMetallicRoughness": {
        "baseColorTexture": {
          "index": 0
        },
        "baseColorFactor": [
          1,
          1,
          1,
          1
        ],
        "metallicFactor": 0,
        "roughnessFactor": 0.99
      },
      "emissiveFactor": [
        0,
        0,
        0
      ],
      "alphaMode": "OPAQUE",
      "doubleSided": false
    }
  ],
  "meshes": [
    {
      "name": "Bus_Green_0103_001_1",
      "primitives": [
        {
          "attributes": {
            "POSITION": 0,
            "NORMAL": 1,
            "TEXCOORD_0": 2
          },
          "indices": 3,
          "material": 0,
          "mode": 4
        }
      ]
    }
  ],
  "nodes": [
    {
      "name": "Bus_Green_0103_001",
      "mesh": 0
    }
  ],
  "samplers": [
    {
      "magFilter": 9729,
      "minFilter": 9986,
      "wrapS": 10497,
      "wrapT": 10497
    }
  ],
  "scene": 0,
  "scenes": [
    {
      "nodes": [
        0
      ]
    }
  ],
  "textures": [
    {
      "name": "BUS05",
      "sampler": 0,
      "source": 0
    }
  ]
}
